<svg width="50" height="50" viewBox="0 0 32 36" fill="none" xmlns="http://www.w3.org/2000/svg">
<path fill-rule="evenodd" clip-rule="evenodd" d="M9.84832 3.34585C8.40862 3.64168 7.02759 4.30107 5.37887 5.94977C4.66847 6.66021 4.10592 7.70111 3.71204 8.80856C3.31957 9.91197 3.14457 10.9391 3.11992 11.5061L3.11866 11.5351L3.11631 11.564C2.96265 13.4593 3.72855 18.0777 8.67108 25.4915L8.68988 25.5197L8.7074 25.5487C9.40564 26.7022 10.6354 28.4436 12.0165 29.8744C12.707 30.5897 13.3973 31.1876 14.0425 31.5974C14.7046 32.0179 15.1943 32.1608 15.5158 32.1608V35.2594C14.3655 35.2594 13.2881 34.789 12.3812 34.213C11.4573 33.6262 10.5766 32.8443 9.7871 32.0264C8.22019 30.4031 6.86355 28.4817 6.07432 27.1824C0.978996 19.5309 -0.197782 14.227 0.0255636 11.3422C0.0694047 10.4255 0.317051 9.10714 0.792598 7.77013C1.27181 6.42289 2.03264 4.91391 3.18783 3.75872C5.21873 1.72781 7.12999 0.741064 9.22464 0.310653C10.8512 -0.0235613 12.5845 -0.00890306 14.3779 0.0062629C14.7547 0.00944949 15.1341 0.0126585 15.5158 0.0126585V3.11128C15.0622 3.11128 14.6359 3.10828 14.2325 3.10545C12.4574 3.093 11.1244 3.08365 9.84832 3.34585Z" fill="black"/>
<path fill-rule="evenodd" clip-rule="evenodd" d="M22.0607 3.52102C23.5138 3.90044 24.92 4.65885 26.5983 6.33714C27.3112 7.04997 27.8794 8.09385 28.2787 9.20194C28.677 10.3071 28.8556 11.332 28.8801 11.8935L28.8813 11.9225L28.8837 11.9514C29.0357 13.8261 28.2898 18.0501 23.3289 25.4915L23.3101 25.5197L23.2926 25.5487C22.5944 26.7023 21.3646 28.4436 19.9835 29.8744C19.293 30.5898 18.6027 31.1877 17.9575 31.5974C17.2954 32.018 16.8057 32.1608 16.4842 32.1608H15.4931V35.2595H16.4842C17.6344 35.2595 18.7119 34.7891 19.6188 34.2131C20.5427 33.6262 21.4234 32.8443 22.2129 32.0265C23.7798 30.4032 25.1364 28.4818 25.9256 27.1825C31.0029 19.5591 32.1994 14.6321 31.9744 11.7295C31.9302 10.8075 31.675 9.48677 31.1939 8.15154C30.7087 6.8049 29.9422 5.29885 28.7894 4.14609C26.7881 2.1448 24.9134 1.0634 22.8436 0.522919C20.8883 0.0123734 18.8327 0.0125309 16.6066 0.0127015C16.5659 0.0127047 16.525 0.0127078 16.4842 0.0127078H13.7501V3.11132H16.4842C18.8588 3.11132 20.5288 3.121 22.0607 3.52102Z" fill="black"/>
<path fill-rule="evenodd" clip-rule="evenodd" d="M29.0495 19.1853H12.5881L11.2324 16.0867H29.0495V19.1853Z" fill="black"/>
<path fill-rule="evenodd" clip-rule="evenodd" d="M21.4672 8.60217C21.4682 8.60254 21.4682 8.60254 21.4673 8.60217C22.1327 8.88732 22.6868 9.16463 23.1005 9.60712C23.4638 9.99564 23.8206 10.6242 23.8206 11.826C23.8206 12.6395 23.6554 13.6287 23.3442 14.731H26.5441C26.7831 13.7113 26.9193 12.7293 26.9193 11.8261C26.9193 9.90516 26.3078 8.50027 25.3638 7.49078C24.4704 6.53522 23.3783 6.04995 22.688 5.75411C22.1028 5.50331 21.2129 5.36881 20.3568 5.28259C19.4283 5.18908 18.3032 5.133 17.1069 5.12057C14.7298 5.09581 11.9541 5.24219 9.78064 5.6562L10.3604 8.70008C12.2539 8.3394 14.8039 8.19536 17.0747 8.21898C18.2025 8.23076 19.2318 8.28359 20.0463 8.36563C20.4542 8.40668 20.7928 8.45354 21.0547 8.50248C21.1851 8.52687 21.2871 8.55003 21.3631 8.57039C21.4306 8.58846 21.4622 8.60029 21.4672 8.60217ZM19.7029 22.4776C20.5737 21.1262 21.3758 19.6667 22.0376 18.217H25.4111C25.2938 18.5065 25.1716 18.7955 25.0451 19.083C24.5447 20.2201 23.9634 21.3664 23.3274 22.4776H19.7029Z" fill="black"/>
<path fill-rule="evenodd" clip-rule="evenodd" d="M10.4871 8.60217C10.4863 8.60254 10.4863 8.60254 10.4872 8.60217C10.4923 8.60029 10.5239 8.58846 10.5914 8.57039C10.6674 8.55003 10.7694 8.52687 10.8998 8.50248C11.1617 8.45354 11.5003 8.40668 11.9081 8.36563C12.7227 8.28359 13.752 8.23076 14.8798 8.21898C17.1505 8.19536 19.7005 8.3394 21.5941 8.70008L22.1738 5.6562C20.0004 5.24219 17.2247 5.09581 14.8475 5.12057C13.6513 5.133 12.5262 5.18908 11.5977 5.28259C10.7416 5.36881 9.85168 5.50331 9.26652 5.75411L9.20323 5.78117C8.55296 6.05926 7.51691 6.5023 6.68471 7.39687C5.76552 8.38503 5.22888 9.75502 5.22888 11.6324C5.22888 13.7885 6.00463 16.3929 7.10308 18.8894C7.63252 20.0926 8.25267 21.3062 8.93239 22.4776H12.5709C11.5746 20.9547 10.6625 19.2851 9.93927 17.6414C8.9074 15.2963 8.32751 13.156 8.32751 11.6324C8.32747 10.387 8.66233 9.82041 8.95353 9.50733C9.30422 9.13033 9.77619 8.90686 10.4871 8.60217Z" fill="black"/>
</svg>
