<svg xmlns="http://www.w3.org/2000/svg" viewBox="0 0 1440 320"><path fill="#ff5500" fill-opacity="1" d="M0,192L26.7,197.3C53.3,203,107,213,160,181.3C213.3,149,267,75,320,90.7C373.3,107,427,213,480,224C533.3,235,587,149,640,112C693.3,75,747,85,800,128C853.3,171,907,245,960,234.7C1013.3,224,1067,128,1120,106.7C1173.3,85,1227,139,1280,149.3C1333.3,160,1387,128,1413,112L1440,96L1440,320L1413.3,320C1386.7,320,1333,320,1280,320C1226.7,320,1173,320,1120,320C1066.7,320,1013,320,960,320C906.7,320,853,320,800,320C746.7,320,693,320,640,320C586.7,320,533,320,480,320C426.7,320,373,320,320,320C266.7,320,213,320,160,320C106.7,320,53,320,27,320L0,320Z"></path></svg>